<svg xmlns="http://www.w3.org/2000/svg" viewBox="0 0 300 300" width="300" height="300">
  <!-- 基德变装成警察形象 -->
  <rect width="300" height="300" fill="#f5f5f5"/>
  
  <!-- 警察帽子 -->
  <path d="M80 100 L220 100 L220 130 C220 170 150 190 80 130 Z" fill="#1a237e"/>
  <rect x="80" y="100" width="140" height="15" fill="#303f9f"/>
  <circle cx="150" cy="107" r="10" fill="#ffd700"/>
  
  <!-- 脸部 -->
  <circle cx="150" cy="160" r="40" fill="#ffe0b2"/>
  
  <!-- 眼睛 -->
  <circle cx="135" cy="150" r="5" fill="#3e2723"/>
  <circle cx="165" cy="150" r="5" fill="#3e2723"/>
  
  <!-- 嘴巴 -->
  <path d="M140 175 Q150 185 160 175" fill="none" stroke="#d32f2f" stroke-width="2"/>
  
  <!-- 警察制服 -->
  <path d="M110 200 L190 200 L200 300 L100 300 Z" fill="#1a237e"/>
  <rect x="140" y="200" width="20" height="60" fill="#ffd700"/>
  <circle cx="150" cy="220" r="5" fill="#ffd700"/>
  <circle cx="150" cy="235" r="5" fill="#ffd700"/>
  <circle cx="150" cy="250" r="5" fill="#ffd700"/>
  
  <!-- 警徽 -->
  <circle cx="120" cy="220" r="10" fill="#ffd700"/>
  
  <!-- 领带 -->
  <polygon points="150,200 140,220 150,240 160,220" fill="#d32f2f"/>
</svg>