<svg xmlns="http://www.w3.org/2000/svg" viewBox="0 0 300 300" width="300" height="300">
  <!-- 基德变装成教授形象 -->
  <rect width="300" height="300" fill="#f5f5f5"/>
  
  <!-- 头发 -->
  <path d="M100 80 Q150 60 200 80 L200 120 Q150 140 100 120 Z" fill="#9e9e9e"/>
  
  <!-- 脸部 -->
  <circle cx="150" cy="150" r="40" fill="#ffe0b2"/>
  
  <!-- 眼镜 -->
  <circle cx="135" cy="145" r="12" fill="none" stroke="#424242" stroke-width="2"/>
  <circle cx="165" cy="145" r="12" fill="none" stroke="#424242" stroke-width="2"/>
  <line x1="147" y1="145" x2="153" y2="145" stroke="#424242" stroke-width="2"/>
  <line x1="123" y1="145" x2="115" y2="140" stroke="#424242" stroke-width="2"/>
  <line x1="177" y1="145" x2="185" y2="140" stroke="#424242" stroke-width="2"/>
  
  <!-- 眼睛 -->
  <circle cx="135" cy="145" r="5" fill="#3e2723"/>
  <circle cx="165" cy="145" r="5" fill="#3e2723"/>
  
  <!-- 嘴巴 -->
  <path d="M140 165 Q150 175 160 165" fill="none" stroke="#d32f2f" stroke-width="2"/>
  
  <!-- 胡子 -->
  <path d="M135 170 Q150 180 165 170" fill="none" stroke="#9e9e9e" stroke-width="3"/>
  
  <!-- 西装 -->
  <path d="M110 190 L190 190 L200 300 L100 300 Z" fill="#4a148c"/>
  
  <!-- 衬衫 -->
  <path d="M130 190 L170 190 L170 260 L130 260 Z" fill="#ffffff"/>
  
  <!-- 领带 -->
  <polygon points="150,190 140,220 150,260 160,220" fill="#ff6f00"/>
  
  <!-- 西装纽扣 -->
  <circle cx="125" cy="230" r="5" fill="#ffd700"/>
  <circle cx="125" cy="250" r="5" fill="#ffd700"/>
</svg>