<svg xmlns="http://www.w3.org/2000/svg" width="1200" height="600" viewBox="0 0 1200 600">
  <!-- 夜空背景 -->
  <rect width="1200" height="600" fill="#0a1128"/>
  
  <!-- 月亮 -->
  <circle cx="900" cy="150" r="80" fill="#ffffff" filter="drop-shadow(0 0 20px rgba(255,255,255,0.8))"/>
  
  <!-- 城市轮廓 -->
  <path d="M0,600 L0,450 L50,450 L70,400 L100,400 L120,350 L150,350 L170,400 L200,400 L220,350 L250,350 L270,300 L300,300 L320,350 L350,350 L370,400 L400,400 L420,350 L450,350 L470,300 L500,300 L520,350 L550,350 L570,400 L600,400 L620,350 L650,350 L670,300 L700,300 L720,350 L750,350 L770,400 L800,400 L820,350 L850,350 L870,300 L900,300 L920,350 L950,350 L970,400 L1000,400 L1020,350 L1050,350 L1070,300 L1100,300 L1120,350 L1150,350 L1170,400 L1200,400 L1200,600 Z" fill="#0a1128"/>
  
  <!-- 城市建筑物 -->
  <rect x="100" y="350" width="50" height="250" fill="#1a2a52"/>
  <rect x="300" y="300" width="70" height="300" fill="#1a2a52"/>
  <rect x="500" y="320" width="60" height="280" fill="#1a2a52"/>
  <rect x="700" y="280" width="80" height="320" fill="#1a2a52"/>
  <rect x="900" y="330" width="65" height="270" fill="#1a2a52"/>
  <rect x="1100" y="310" width="55" height="290" fill="#1a2a52"/>
  
  <!-- 建筑物窗户 -->
  <g fill="#f9d71c" opacity="0.8">
    <!-- 建筑物1窗户 -->
    <rect x="110" y="370" width="10" height="15"/>
    <rect x="130" y="370" width="10" height="15"/>
    <rect x="110" y="400" width="10" height="15"/>
    <rect x="130" y="400" width="10" height="15"/>
    <rect x="110" y="430" width="10" height="15"/>
    <rect x="130" y="430" width="10" height="15"/>
    
    <!-- 建筑物2窗户 -->
    <rect x="315" y="320" width="12" height="18"/>
    <rect x="343" y="320" width="12" height="18"/>
    <rect x="315" y="360" width="12" height="18"/>
    <rect x="343" y="360" width="12" height="18"/>
    <rect x="315" y="400" width="12" height="18"/>
    <rect x="343" y="400" width="12" height="18"/>
    <rect x="315" y="440" width="12" height="18"/>
    <rect x="343" y="440" width="12" height="18"/>
    
    <!-- 其他建筑物窗户 -->
    <rect x="515" y="340" width="10" height="15"/>
    <rect x="535" y="340" width="10" height="15"/>
    <rect x="515" y="370" width="10" height="15"/>
    <rect x="535" y="370" width="10" height="15"/>
    <rect x="515" y="400" width="10" height="15"/>
    <rect x="535" y="400" width="10" height="15"/>
    
    <rect x="720" y="300" width="12" height="18"/>
    <rect x="750" y="300" width="12" height="18"/>
    <rect x="720" y="340" width="12" height="18"/>
    <rect x="750" y="340" width="12" height="18"/>
    <rect x="720" y="380" width="12" height="18"/>
    <rect x="750" y="380" width="12" height="18"/>
    <rect x="720" y="420" width="12" height="18"/>
    <rect x="750" y="420" width="12" height="18"/>
  </g>
  
  <!-- 星星 -->
  <g fill="#ffffff">
    <circle cx="50" cy="50" r="1.5"/>
    <circle cx="150" cy="80" r="1"/>
    <circle cx="250" cy="40" r="1.5"/>
    <circle cx="350" cy="90" r="1"/>
    <circle cx="450" cy="60" r="1.5"/>
    <circle cx="550" cy="30" r="1"/>
    <circle cx="650" cy="70" r="1.5"/>
    <circle cx="750" cy="50" r="1"/>
    <circle cx="850" cy="90" r="1.5"/>
    <circle cx="950" cy="40" r="1"/>
    <circle cx="1050" cy="80" r="1.5"/>
    <circle cx="1150" cy="60" r="1"/>
    <circle cx="100" cy="120" r="1.5"/>
    <circle cx="200" cy="150" r="1"/>
    <circle cx="300" cy="130" r="1.5"/>
    <circle cx="400" cy="170" r="1"/>
    <circle cx="500" cy="140" r="1.5"/>
    <circle cx="600" cy="180" r="1"/>
    <circle cx="700" cy="160" r="1.5"/>
    <circle cx="800" cy="190" r="1"/>
    <circle cx="1000" cy="170" r="1.5"/>
    <circle cx="1100" cy="140" r="1"/>
  </g>
  
  <!-- 怪盗基德剪影 -->
  <path d="M600,250 C600,250 580,260 575,270 C570,280 570,290 575,300 C580,310 590,315 600,315 C610,315 620,310 625,300 C630,290 630,280 625,270 C620,260 600,250 600,250 Z" fill="#ffffff"/>
  <path d="M600,315 L600,380 L580,420 L620,420 L600,380 Z" fill="#ffffff"/>
  <path d="M580,420 L560,460 L640,460 L620,420 Z" fill="#ffffff"/>
  <path d="M560,330 L540,370 L580,370 Z" fill="#ffffff"/>
  <path d="M640,330 L660,370 L620,370 Z" fill="#ffffff"/>
  <path d="M575,270 L550,250 L560,280 Z" fill="#ffffff"/>
  <path d="M625,270 L650,250 L640,280 Z" fill="#ffffff"/>
  <ellipse cx="590" cy="285" rx="3" ry="5" fill="#0a1128"/>
  <path d="M580,290 C585,295 595,295 600,290" fill="none" stroke="#0a1128" stroke-width="1"/>
  <path d="M570,260 L630,260" fill="none" stroke="#ffffff" stroke-width="10"/>
  <path d="M585,240 L615,240 L615,260 L585,260 Z" fill="#ffffff"/>
</svg>