<svg xmlns="http://www.w3.org/2000/svg" width="400" height="400" viewBox="0 0 400 400">
  <!-- 背景 -->
  <rect width="400" height="400" fill="#0d47a1" opacity="0.8"/>
  
  <!-- 月亮 -->
  <circle cx="80" cy="80" r="60" fill="#ffffff" filter="drop-shadow(0 0 15px rgba(255,255,255,0.8))"/>
  
  <!-- 怪盗基德飞行姿势 -->
  <g transform="translate(200, 200) rotate(-15)">
    <!-- 斗篷/滑翔翼 -->
    <path d="M0,0 C-100,-50 -150,-20 -180,50 L0,50 L180,50 C150,-20 100,-50 0,0 Z" fill="#ffffff"/>
    
    <!-- 身体 -->
    <path d="M-20,0 L-30,100 L30,100 L20,0 Z" fill="#ffffff"/>
    
    <!-- 腿 -->
    <path d="M-30,100 L-40,150 L-10,150 L-10,100 Z" fill="#ffffff"/>
    <path d="M30,100 L40,150 L10,150 L10,100 Z" fill="#ffffff"/>
    
    <!-- 手臂 -->
    <path d="M-20,30 L-70,20 L-65,0 L-15,10 Z" fill="#ffffff"/>
    <path d="M20,30 L70,20 L65,0 L15,10 Z" fill="#ffffff"/>
    
    <!-- 头部 -->
    <g transform="translate(0, -20)">
      <!-- 帽子 -->
      <path d="M0,-30 L-30,-20 L-35,-10 L-35,0 L35,0 L35,-10 L30,-20 Z" fill="#ffffff"/>
      <rect x="-35" y="0" width="70" height="5" fill="#1e88e5"/>
      
      <!-- 脸 -->
      <ellipse cx="0" cy="15" rx="25" ry="30" fill="#ffebee"/>
      
      <!-- 单片眼镜 -->
      <circle cx="10" cy="10" r="10" fill="none" stroke="#ffffff" stroke-width="2"/>
      <line x1="10" y1="0" x2="10" y2="-10" stroke="#ffffff" stroke-width="2"/>
      
      <!-- 眼睛 -->
      <ellipse cx="-7" cy="10" rx="5" ry="7" fill="#0d47a1"/>
      <ellipse cx="10" cy="10" rx="5" ry="7" fill="#0d47a1"/>
      
      <!-- 微笑 -->
      <path d="M-7,25 Q0,30 7,25" fill="none" stroke="#d32f2f" stroke-width="2"/>
    </g>
  </g>
  
  <!-- 城市轮廓 -->
  <path d="M0,400 L0,300 L50,300 L70,250 L100,250 L120,200 L150,200 L170,250 L200,250 L220,200 L250,200 L270,150 L300,150 L320,200 L350,200 L370,250 L400,250 L400,400 Z" fill="#0d47a1"/>
  
  <!-- 建筑物窗户 -->
  <g fill="#f9d71c" opacity="0.8">
    <rect x="60" y="270" width="10" height="15"/>
    <rect x="80" y="270" width="10" height="15"/>
    <rect x="60" y="300" width="10" height="15"/>
    <rect x="80" y="300" width="10" height="15"/>
    
    <rect x="160" y="270" width="10" height="15"/>
    <rect x="180" y="270" width="10" height="15"/>
    <rect x="160" y="300" width="10" height="15"/>
    <rect x="180" y="300" width="10" height="15"/>
    
    <rect x="260" y="170" width="10" height="15"/>
    <rect x="280" y="170" width="10" height="15"/>
    <rect x="260" y="200" width="10" height="15"/>
    <rect x="280" y="200" width="10" height="15"/>
    
    <rect x="360" y="270" width="10" height="15"/>
    <rect x="380" y="270" width="10" height="15"/>
    <rect x="360" y="300" width="10" height="15"/>
    <rect x="380" y="300" width="10" height="15"/>
  </g>
</svg>